<svg width="416" height="287" viewBox="0 0 416 287" fill="none" xmlns="http://www.w3.org/2000/svg">
<rect width="416" height="286" fill="#050505"/>
<rect x="17.1384" y="14.3591" width="383.065" height="257.075" rx="38.4455" stroke="#FAFAFA" stroke-width="13.896"/>
<path d="M50.8306 57.5663V120.424H41.345V57.5663H50.8306ZM128.588 105.157H101.678L94.6762 120.424H84.4577L115.561 53.6174L145.565 120.424H135.183L128.588 105.157ZM124.721 96.2416L115.398 74.8684L105.627 96.2416H124.721ZM151.264 120.424L164.495 52.8439L186.072 101.697L208.422 52.8439L220.31 120.424H210.58L204.514 82.4813L185.909 123.314L167.833 82.4406L161.076 120.424H151.264ZM87.796 171.945V183.182C82.3136 178.595 76.6413 176.301 70.7789 176.301C64.3195 176.301 58.8778 178.622 54.4539 183.263C50.0028 187.877 47.7773 193.522 47.7773 200.199C47.7773 206.794 50.0028 212.358 54.4539 216.89C58.9049 221.423 64.3602 223.689 70.8196 223.689C74.1579 223.689 76.9941 223.146 79.3282 222.06C80.6309 221.518 81.9744 220.785 83.3585 219.862C84.7699 218.939 86.249 217.826 87.796 216.524V227.963C82.3679 231.03 76.6684 232.564 70.6975 232.564C61.714 232.564 54.0468 229.429 47.6959 223.16C41.3721 216.836 38.2102 209.209 38.2102 200.28C38.2102 192.274 40.8564 185.136 46.1489 178.866C52.6626 171.185 61.0897 167.345 71.4303 167.345C77.0755 167.345 82.5308 168.878 87.796 171.945ZM109.291 168.566V222.508H127.774V231.424H99.8057V168.566H109.291ZM146.257 168.566V231.424H136.771V168.566H146.257ZM159.162 231.424L172.393 163.844L193.97 212.697L216.32 163.844L228.208 231.424H218.478L212.412 193.481L193.807 234.314L175.731 193.441L168.973 231.424H159.162ZM278.486 216.157H251.576L244.573 231.424H234.355L265.458 164.617L295.462 231.424H285.081L278.486 216.157ZM274.618 207.242L265.295 185.868L255.525 207.242H274.618ZM317.201 177.482V231.424H307.716V177.482H293.264V168.566H331.613V177.482H317.201ZM374.767 177.482H349.567V192.586H374.034V201.501H349.567V222.508H374.767V231.424H340.081V168.566H374.767V177.482Z" fill="#FAFAFA"/>
</svg>
