<svg width="902" height="619" viewBox="0 0 902 619" fill="none" xmlns="http://www.w3.org/2000/svg">
<rect width="902" height="619" fill="#fafafa"/>
<rect x="37" y="31" width="827" height="555" rx="83" stroke="black" stroke-width="30"/>
<path d="M109.738 124.297V260H89.2598V124.297H109.738ZM277.609 227.041H219.514L204.396 260H182.336L249.484 115.771L314.26 260H291.848L277.609 227.041ZM269.26 207.793L249.133 161.65L228.039 207.793H269.26ZM326.564 260L355.129 114.102L401.711 219.57L449.963 114.102L475.627 260H454.621L441.525 178.086L401.359 266.24L362.336 177.998L347.746 260H326.564ZM189.543 370.592V394.85C177.707 384.947 165.461 379.996 152.805 379.996C138.859 379.996 127.111 385.006 117.561 395.025C107.951 404.986 103.146 417.174 103.146 431.588C103.146 445.826 107.951 457.838 117.561 467.623C127.17 477.408 138.947 482.301 152.893 482.301C160.1 482.301 166.223 481.129 171.262 478.785C174.074 477.613 176.975 476.031 179.963 474.039C183.01 472.047 186.203 469.645 189.543 466.832V491.529C177.824 498.15 165.52 501.461 152.629 501.461C133.234 501.461 116.682 494.693 102.971 481.158C89.3184 467.506 82.4922 451.041 82.4922 431.764C82.4922 414.479 88.2051 399.068 99.6309 385.533C113.693 368.951 131.887 360.66 154.211 360.66C166.398 360.66 178.176 363.971 189.543 370.592ZM235.949 363.297V479.752H275.852V499H215.471V363.297H235.949ZM315.754 363.297V499H295.275V363.297H315.754ZM343.615 499L372.18 353.102L418.762 458.57L467.014 353.102L492.678 499H471.672L458.576 417.086L418.41 505.24L379.387 416.998L364.797 499H343.615ZM601.223 466.041H543.127L528.01 499H505.949L573.098 354.771L637.873 499H615.461L601.223 466.041ZM592.873 446.793L572.746 400.65L551.652 446.793H592.873ZM684.807 382.545V499H664.328V382.545H633.127V363.297H715.92V382.545H684.807ZM809.084 382.545H754.68V415.152H807.502V434.4H754.68V479.752H809.084V499H734.201V363.297H809.084V382.545Z" fill="black"/>
</svg>
